<svg width="44" height="44" viewBox="0 0 44 44" fill="none" xmlns="http://www.w3.org/2000/svg">
<rect x="3.8" y="3.8" width="36.4" height="36.4" rx="18.2" fill="#BB6BD9"/>
<rect x="3.8" y="3.8" width="36.4" height="36.4" rx="18.2" fill="url(#paint0_radial_884_14111)"/>
<rect x="3.8" y="3.8" width="36.4" height="36.4" rx="18.2" stroke="#EFF2F4" stroke-width="6.4"/>
<path d="M25.537 28.343C25.2058 28.343 24.7808 28.2368 24.2496 27.9243L22.3809 26.8181C22.1872 26.7056 21.8122 26.7056 21.6247 26.8181L19.7498 27.9243C18.6436 28.5805 17.9937 28.318 17.6999 28.1055C17.4125 27.893 16.9625 27.3493 17.2562 26.0994L17.6999 24.1808C17.7499 23.9808 17.6499 23.637 17.5 23.487L15.95 21.9371C15.1751 21.1622 15.2376 20.4997 15.3438 20.1747C15.4501 19.8497 15.7875 19.2748 16.8625 19.0935L18.8561 18.7623C19.0436 18.731 19.3124 18.5311 19.3936 18.3623L20.4998 16.1562C20.9998 15.15 21.656 15 21.9997 15C22.3434 15 22.9997 15.15 23.4996 16.1562L24.5996 18.3561C24.6871 18.5248 24.9558 18.7248 25.1433 18.756L27.1369 19.0873C28.2181 19.2685 28.5556 19.8435 28.6556 20.1685C28.7556 20.4935 28.8181 21.1559 28.0494 21.9309L26.4995 23.487C26.3495 23.637 26.2557 23.9745 26.2995 24.1808L26.7432 26.0994C27.0307 27.3493 26.587 27.893 26.2995 28.1055C26.1432 28.218 25.8932 28.343 25.537 28.343Z" fill="white"/>
<defs>
<radialGradient id="paint0_radial_884_14111" cx="0" cy="0" r="1" gradientUnits="userSpaceOnUse" gradientTransform="translate(22.0955 7) rotate(90) scale(22)">
<stop stop-color="#9B51E0"/>
<stop offset="1" stop-color="#9B51E0"/>
</radialGradient>
</defs>
</svg>
