<svg width="39" height="39" viewBox="0 0 39 39" fill="none" xmlns="http://www.w3.org/2000/svg">
<path d="M22.9549 19.6581C22.7132 20.7946 21.8195 21.6883 20.6831 21.93C18.5165 22.3907 16.6344 20.508 17.0953 18.3418C17.3132 17.3175 18.3425 16.2881 19.3668 16.0701C21.533 15.6091 23.4158 17.4914 22.9549 19.6581ZM27.4145 17.835L25.8296 17.5705C25.717 17.1102 25.554 16.6697 25.3424 16.2579C25.3335 16.2406 25.3356 16.2197 25.3478 16.2046L26.3423 14.9714C26.5581 14.7055 26.5483 14.323 26.3208 14.0664L25.6905 13.3569C25.462 13.1006 25.0831 13.0464 24.794 13.229L23.4386 14.0811C22.851 13.6705 22.1865 13.3658 21.47 13.1862C21.451 13.1815 21.4366 13.166 21.4334 13.1466L21.1735 11.585C21.1179 11.2476 20.8259 11 20.4831 11H19.5332C19.1912 11 18.8982 11.2476 18.8438 11.585L18.5825 13.1472C18.5793 13.1665 18.5649 13.182 18.5459 13.1867C17.966 13.332 17.4214 13.5614 16.9225 13.8612C16.9057 13.8714 16.8845 13.8706 16.8686 13.8592L15.6058 12.958C15.328 12.7595 14.9464 12.7906 14.704 13.0325L14.0329 13.7041C13.791 13.9465 13.7599 14.3281 13.9589 14.6059L14.8623 15.8712C14.8736 15.8872 14.8744 15.9083 14.8643 15.9251C14.5674 16.4202 14.3404 16.9616 14.1953 17.5361C14.1905 17.5551 14.175 17.5695 14.1557 17.5727L12.5849 17.835C12.2481 17.8906 12 18.1826 12 18.5254V19.4746C12 19.8173 12.2481 20.1094 12.5849 20.165L14.1557 20.4273C14.175 20.4305 14.1905 20.4449 14.1952 20.4639C14.3133 20.933 14.4815 21.3817 14.7027 21.7994C14.7119 21.8169 14.7099 21.838 14.6975 21.8534L13.7079 23.079C13.4929 23.3447 13.5019 23.7275 13.7294 23.9839L14.3593 24.6933C14.5878 24.9501 14.9669 25.0034 15.256 24.8212L16.6037 23.9746C16.6203 23.9642 16.6413 23.9646 16.6575 23.9755C17.2327 24.3643 17.8816 24.6506 18.5772 24.8212L18.8438 26.415C18.8982 26.7524 19.1912 27 19.5332 27H20.4831C20.8259 27 21.1179 26.7524 21.1735 26.415L21.4338 24.8531C21.437 24.8337 21.4515 24.8183 21.4705 24.8135C22.0428 24.6702 22.5804 24.4449 23.0746 24.1503C23.0914 24.1403 23.1124 24.1411 23.1283 24.1524L24.4449 25.0928C24.7222 25.292 25.1041 25.2607 25.3463 25.018L26.0177 24.3466C26.2593 24.1049 26.292 23.7236 26.0914 23.4452L25.1541 22.1311C25.1427 22.1152 25.142 22.0941 25.152 22.0773C25.4499 21.5806 25.6781 21.0381 25.8224 20.4609C25.8272 20.4419 25.8427 20.4275 25.862 20.4243L27.4151 20.165C27.7529 20.1093 28 19.8173 28 19.4746V18.5253C27.9995 18.1826 27.7524 17.8906 27.4145 17.835Z" fill="#535C69"/>
<rect x="0.5" y="0.5" width="38" height="38" rx="2.5" stroke="#C8CDD3"/>
</svg>
