<svg width="72" height="72" viewBox="0 0 72 72" fill="none" xmlns="http://www.w3.org/2000/svg">
<rect width="72" height="72" rx="15" fill="#46474E"/>
<path d="M25.325 31.7245L22.5627 34.9758V41.8801H17V17.2294H22.5627V26.8539L30.5456 17.2294H37.122L28.9997 27.2425L37.5402 41.8671H31.0271L25.3124 31.7115L25.325 31.7245Z" fill="white"/>
<path d="M54.0435 40.2258C53.3846 40.6792 52.6751 41.0548 51.9275 41.3527C51.2305 41.6377 50.4956 41.832 49.7607 41.9616C47.974 42.2724 46.1493 42.1818 44.4134 41.6766C43.3236 41.3786 42.2973 40.8994 41.3723 40.2517C40.4599 39.617 39.7123 38.775 39.1548 37.8035C38.5592 36.7283 38.2678 35.5107 38.2931 34.2801V25.083C38.2678 23.8524 38.5466 22.6348 39.1168 21.5467C39.649 20.5622 40.3966 19.6943 41.2836 19.0208C42.1959 18.3342 43.2223 17.8161 44.312 17.5052C45.4144 17.1684 46.5675 17 47.7333 17C49.1778 17 50.6223 17.2202 52.0162 17.6218C53.334 17.9715 54.5631 18.6322 55.6021 19.5389L52.9032 23.9431C52.1809 23.2954 51.3066 22.8162 50.3689 22.57C49.5453 22.3498 48.709 22.2332 47.8727 22.2332C47.4038 22.2332 46.935 22.311 46.4788 22.4535C46.01 22.5959 45.5792 22.8162 45.1863 23.1141C44.7809 23.425 44.4514 23.8265 44.2233 24.2929C43.9572 24.8628 43.8305 25.4716 43.8558 26.1064V33.0754C43.8305 33.6972 43.9572 34.3189 44.2106 34.8889C44.426 35.3423 44.7302 35.7568 45.123 36.0677C45.4905 36.3656 45.9086 36.5858 46.3647 36.7283C46.8082 36.8708 47.2771 36.9485 47.7459 36.9485C48.1894 36.9485 48.6329 36.8838 49.0637 36.7672C49.5326 36.6376 49.9761 36.4045 50.3435 36.0936V32.7645H47.0236V27.9717H55.9062V38.5289C55.3867 39.2024 54.7532 39.7854 54.0563 40.2517L54.0435 40.2258Z" fill="white"/>
<path d="M55.9062 49.1237H17V54.3828H55.9062V49.1237Z" fill="white"/>
</svg>
